<svg width="177" height="43" viewBox="0 0 177 43" fill="none" xmlns="http://www.w3.org/2000/svg">
<path d="M73.0368 20.3416C73.0368 26.2406 68.8208 30.4957 62.7843 30.4957C56.8436 30.4957 52.5317 26.1439 52.5317 20.3416C52.5317 14.4426 56.7477 10.1875 62.7843 10.1875C68.8208 10.1875 73.0368 14.5393 73.0368 20.3416ZM56.6519 20.3416C56.6519 24.1131 59.239 26.7242 62.7843 26.7242C66.3295 26.7242 68.9166 24.1131 68.9166 20.3416C68.9166 16.5701 66.3295 13.959 62.7843 13.959C59.239 13.959 56.6519 16.5701 56.6519 20.3416Z" fill="white"/>
<path d="M79.1684 9.99414H75.5273V30.2056H79.1684V9.99414Z" fill="white"/>
<path d="M86.3561 12.1217C86.3561 13.4756 85.3021 14.4427 84.0565 14.4427C82.715 14.4427 81.7568 13.4756 81.7568 12.1217C81.7568 10.7678 82.715 9.80078 84.0565 9.80078C85.3979 9.80078 86.3561 10.8645 86.3561 12.1217ZM85.877 30.2057H82.2359V16.6669H85.877V30.2057Z" fill="white"/>
<path d="M96.7999 30.2058H92.6798L87.314 16.5703H91.2425L94.7878 26.3376L98.333 16.5703H102.07L96.7999 30.2058Z" fill="white"/>
<path d="M115.677 23.3388C115.677 23.7256 115.677 24.3059 115.581 24.596H106C106.383 26.5301 107.724 27.4005 109.449 27.4005C110.599 27.4005 111.845 26.9169 112.899 26.1433L115.007 28.4642C113.473 29.9148 111.557 30.495 109.257 30.495C105.137 30.495 102.263 27.6906 102.263 23.4355C102.263 19.1805 105.041 16.2793 109.066 16.2793C112.994 16.2793 115.677 19.1805 115.677 23.3388ZM106.095 22.0816H112.036C111.749 20.3409 110.695 19.3739 109.066 19.3739C107.437 19.3739 106.383 20.4376 106.095 22.0816Z" fill="white"/>
<path d="M138.194 14.249H132.253V30.2055H128.325V14.249H122.288V10.5742H138.194V14.249Z" fill="white"/>
<path d="M147.585 16.5693L147.01 20.2441C146.435 19.954 145.573 19.8573 144.806 19.8573C143.081 19.8573 141.932 20.9211 141.932 22.9519V30.3982H138.291V16.8594H141.836V18.31C142.698 17.0528 143.944 16.4726 145.669 16.4726C146.531 16.2792 147.106 16.3759 147.585 16.5693Z" fill="white"/>
<path d="M161.479 23.3388C161.479 23.7256 161.479 24.3059 161.383 24.596H151.801C152.184 26.5301 153.526 27.4005 155.25 27.4005C156.4 27.4005 157.646 26.9169 158.7 26.1433L160.808 28.4642C159.275 29.9148 157.358 30.495 155.059 30.495C150.939 30.495 148.064 27.6906 148.064 23.4355C148.064 19.1805 150.843 16.2793 154.867 16.2793C158.796 16.2793 161.383 19.1805 161.479 23.3388ZM151.801 22.0816H157.742C157.454 20.3409 156.4 19.3739 154.771 19.3739C153.142 19.3739 152.184 20.4376 151.801 22.0816Z" fill="white"/>
<path d="M176.233 23.3388C176.233 23.7256 176.233 24.3059 176.138 24.596H166.556C166.939 26.5301 168.28 27.4005 170.005 27.4005C171.155 27.4005 172.401 26.9169 173.455 26.1433L175.563 28.4642C174.03 29.9148 172.113 30.495 169.814 30.495C165.693 30.495 162.819 27.6906 162.819 23.4355C162.819 19.1805 165.598 16.2793 169.622 16.2793C173.55 16.2793 176.233 19.1805 176.233 23.3388ZM166.652 22.0816H172.592C172.305 20.3409 171.251 19.3739 169.622 19.3739C167.897 19.3739 166.939 20.4376 166.652 22.0816Z" fill="white"/>
<path d="M16.218 34.1708H13.056V24.887L7.88184 23.0496L8.93583 20.1484L16.218 22.6628V34.1708Z" fill="white"/>
<path d="M29.9189 15.5066L28.29 12.8956L22.3493 16.6671V9.02734H19.2831V16.6671L13.2466 12.8956L11.6177 15.5066L19.2831 20.3419V34.1708H22.3493V20.3419L29.9189 15.5066Z" fill="white"/>
<path d="M28.4822 34.1708H25.416V22.6628L32.6982 20.1484L33.6564 23.0496L28.4822 24.887V34.1708Z" fill="white"/>
<path d="M20.8164 42.5835C9.31828 42.5835 0.0239258 33.1064 0.0239258 21.5984C0.0239258 10.0904 9.31828 0.613281 20.8164 0.613281C32.3146 0.613281 41.609 9.99373 41.609 21.5984C41.609 33.2031 32.2188 42.5835 20.8164 42.5835ZM20.8164 3.70786C11.043 3.70786 3.0901 11.7344 3.0901 21.5984C3.0901 31.4624 11.043 39.489 20.8164 39.489C30.5899 39.489 38.5428 31.4624 38.5428 21.5984C38.5428 11.7344 30.5899 3.70786 20.8164 3.70786Z" fill="white"/>
</svg>
